M48
; DRILL file {KiCad (5.1.8-0-10_14)} date Saturday, February 20, 2021 at 12:56:22 PM
; FORMAT={-:-/ absolute / inch / decimal}
; #@! TF.CreationDate,2021-02-20T12:56:22+10:00
; #@! TF.GenerationSoftware,Kicad,Pcbnew,(5.1.8-0-10_14)
; #@! TF.FileFunction,Plated,1,2,PTH
FMAT,2
INCH
T1C0.0130
T2C0.0197
T3C0.0217
T4C0.0295
T5C0.0315
T6C0.0394
T7C0.1260
%
G90
G05
T1
X7.0409Y-4.1161
T2
X9.5364Y-5.0761
X9.5641Y-5.0093
X9.5641Y-5.143
X9.6309Y-4.9817
X9.6309Y-5.1706
X9.6977Y-5.0093
X9.6977Y-5.143
X9.7254Y-5.0761
X4.6164Y-2.6561
X4.6441Y-2.5893
X4.6441Y-2.723
X4.7109Y-2.5617
X4.7109Y-2.7506
X4.7777Y-2.5893
X4.7777Y-2.723
X4.8054Y-2.6561
X9.5364Y-2.6561
X9.5641Y-2.5893
X9.5641Y-2.723
X9.6309Y-2.5617
X9.6309Y-2.7506
X9.6977Y-2.5893
X9.6977Y-2.723
X9.7254Y-2.6561
X4.6164Y-5.0761
X4.6441Y-5.0093
X4.6441Y-5.143
X4.7109Y-4.9817
X4.7109Y-5.1706
X4.7777Y-5.0093
X4.7777Y-5.143
X4.8054Y-5.0761
T3
X5.9569Y-3.3081
X6.0569Y-3.3081
X8.4509Y-4.8811
X7.1309Y-4.7961
X5.0459Y-2.7661
X5.0959Y-2.7661
X6.0069Y-3.3081
X7.1809Y-4.7961
X7.2309Y-4.7961
X4.9959Y-2.7661
X5.7909Y-4.1586
X5.8409Y-4.1586
X5.8909Y-4.1586
X8.3509Y-4.8811
X8.4009Y-4.8811
T4
X8.3169Y-3.7591
X8.3169Y-3.8091
X8.3169Y-3.8591
X4.9193Y-4.7984
X4.9193Y-4.8484
X4.9193Y-4.8984
X8.5016Y-3.7579
X8.5016Y-3.8079
X8.5016Y-3.8579
X4.6882Y-4.6618
X4.6882Y-4.7118
X4.6882Y-4.7618
X5.2961Y-4.8366
X5.2961Y-4.8866
X5.2961Y-4.9366
T5
X4.7384Y-3.0586
X4.7359Y-3.3611
X6.6009Y-4.7461
X6.6009Y-5.1461
X9.0309Y-3.7561
X9.0309Y-3.8546
X6.6949Y-3.7401
X6.6949Y-3.8386
X5.5709Y-5.0011
X7.2369Y-2.6961
X7.9689Y-5.0301
X6.3909Y-3.2761
X6.3909Y-3.6761
X5.8009Y-3.0541
X6.2009Y-3.0541
X4.8909Y-3.8011
X5.2909Y-3.8011
X7.4409Y-3.7961
X7.8409Y-3.7961
X7.0229Y-4.3921
X7.4229Y-4.3921
X9.1509Y-3.6561
X9.5509Y-3.6561
X8.7259Y-4.9811
X9.1259Y-4.9811
X8.2409Y-4.2911
X8.2409Y-4.6911
X8.3509Y-3.4261
X8.7509Y-3.4261
X7.3509Y-2.7061
X5.9759Y-4.5811
X6.094Y-4.5811
X7.7009Y-2.6861
X9.5209Y-4.4377
X9.5209Y-4.5361
X6.2784Y-3.9886
X6.2784Y-4.2886
X6.3784Y-3.9886
X6.3784Y-4.2886
X6.4784Y-3.9886
X6.4784Y-4.2886
X6.5784Y-3.9886
X6.5784Y-4.2886
X6.6784Y-3.9886
X6.6784Y-4.2886
X6.7784Y-3.9886
X6.7784Y-4.2886
X6.8784Y-3.9886
X6.8784Y-4.2886
X7.9809Y-2.7061
X8.6809Y-4.6383
X8.6809Y-4.7761
X4.7359Y-3.2686
X4.7484Y-3.9061
X6.8809Y-5.0261
X4.7859Y-4.2183
X4.7859Y-4.3561
X4.8734Y-2.9261
X5.2734Y-2.9261
X6.8689Y-3.2761
X6.8689Y-3.6761
X7.3809Y-4.8511
X7.7809Y-4.8511
X5.7309Y-4.4761
X5.7309Y-4.8761
X5.8559Y-4.4761
X5.8559Y-4.8761
X5.4484Y-4.7411
X5.4484Y-5.1411
X8.8909Y-3.5961
X8.8909Y-3.9961
X8.1109Y-3.9061
X8.1109Y-4.3061
X8.3509Y-3.5761
X8.7509Y-3.5761
X8.4709Y-2.6277
X8.4709Y-2.7261
X8.0829Y-5.0221
X8.0909Y-2.7061
X7.1049Y-3.7941
X7.1049Y-3.8926
X8.3859Y-4.1511
X8.3859Y-4.4511
X8.4859Y-4.1511
X8.4859Y-4.4511
X8.5859Y-4.1511
X8.5859Y-4.4511
X8.6859Y-4.1511
X8.6859Y-4.4511
X8.7859Y-4.1511
X8.7859Y-4.4511
X8.8859Y-4.1511
X8.8859Y-4.4511
X8.9859Y-4.1511
X8.9859Y-4.4511
X4.8709Y-3.2011
X5.2709Y-3.2011
X6.0929Y-3.5581
X6.0929Y-3.9581
X7.3809Y-4.7011
X7.7809Y-4.7011
X5.9759Y-4.4386
X6.3759Y-4.4386
X7.0249Y-4.5261
X7.4249Y-4.5261
X9.4109Y-4.7161
X9.4109Y-5.1161
X5.0959Y-4.6861
X5.0959Y-5.0861
X9.1309Y-4.1061
X9.1309Y-4.5061
X7.0834Y-5.0261
X4.7334Y-3.1586
X5.9589Y-2.6981
X9.1509Y-3.2761
X9.5509Y-3.2761
X8.2809Y-2.9777
X8.2809Y-3.0761
X8.2309Y-2.7161
X5.6709Y-5.0011
X4.7484Y-3.9936
X6.9951Y-3.2772
X6.9951Y-3.6772
X5.1549Y-3.4641
X5.5549Y-3.4641
X7.4409Y-3.6661
X7.8409Y-3.6661
X6.0959Y-4.7411
X6.0959Y-5.1411
X5.2809Y-4.2361
X5.2809Y-4.6361
X8.8959Y-4.7911
X9.2959Y-4.7911
X4.9109Y-4.1861
X4.9109Y-4.5861
X9.1509Y-3.3961
X9.5509Y-3.3961
X8.6909Y-2.6183
X8.6909Y-2.7561
X7.8109Y-2.6861
X6.7509Y-4.8861
X6.7509Y-5.0239
X5.8359Y-5.0033
X5.8359Y-5.1411
X4.9049Y-3.4661
X5.0034Y-3.4661
X6.3609Y-5.0083
X6.3609Y-5.1461
X4.7309Y-3.7561
X9.7209Y-3.2761
X8.9459Y-5.1061
X9.2459Y-5.1061
X7.1239Y-3.2761
X7.1239Y-3.6761
X5.1509Y-3.6036
X5.5509Y-3.6036
X5.4959Y-3.8011
X5.8959Y-3.8011
X6.2284Y-4.7411
X6.2284Y-5.1411
X9.6509Y-4.2661
X9.6509Y-4.6661
X7.9709Y-3.9061
X7.9709Y-4.3061
X4.6509Y-4.0861
X4.6509Y-4.4861
X7.1109Y-2.7041
X6.9809Y-5.0261
X9.7209Y-3.5261
X8.4124Y-3.9961
X8.5109Y-3.9961
X7.9809Y-2.9761
X7.9809Y-3.0746
X8.3828Y-4.6961
X8.5009Y-4.6961
X6.6184Y-4.4711
X6.6184Y-4.5696
X6.5349Y-2.6481
X6.9349Y-2.6481
X6.2489Y-3.2761
X6.2489Y-3.6761
X7.2709Y-3.2761
X7.2709Y-3.6761
X7.3809Y-5.0011
X7.7809Y-5.0011
X7.4409Y-3.9261
X7.8409Y-3.9261
X9.2609Y-4.1061
X9.2609Y-4.5061
X5.4509Y-4.2411
X5.4509Y-4.6411
X8.8009Y-4.6461
X9.2009Y-4.6461
X9.6209Y-4.1161
X5.5209Y-3.1111
X5.5209Y-3.2096
X5.8689Y-2.6961
X7.2409Y-5.0291
X6.5289Y-2.8121
X6.9289Y-2.8121
X9.7209Y-3.6561
X7.0709Y-4.0483
X7.0709Y-4.1861
X6.2028Y-4.5786
X6.3209Y-4.5786
X5.0959Y-4.4261
X5.0959Y-4.5639
X8.7309Y-3.8261
X8.7309Y-3.9639
X9.7209Y-3.3961
X6.4909Y-5.0036
X9.0859Y-2.6561
X6.5209Y-3.2761
X6.5209Y-3.6761
X4.8709Y-3.0636
X5.2709Y-3.0636
X4.8634Y-3.9511
X5.2634Y-3.9511
X7.3809Y-5.1461
X7.7809Y-5.1461
X7.4389Y-4.2021
X7.8389Y-4.2021
X9.3909Y-4.1061
X9.3909Y-4.5061
X9.1509Y-3.5261
X9.5509Y-3.5261
X8.2129Y-5.1241
X8.6129Y-5.1241
X9.0309Y-3.2261
X9.0309Y-3.6261
T6
X6.2269Y-2.6461
X6.2269Y-2.843
X8.4809Y-2.9261
X8.4809Y-3.2261
X8.5809Y-2.9261
X8.5809Y-3.2261
X8.6809Y-2.9261
X8.6809Y-3.2261
X8.7809Y-2.9261
X8.7809Y-3.2261
X9.0009Y-2.9561
X9.1977Y-2.9561
X7.9463Y-3.4561
X8.1628Y-3.4561
X7.5409Y-3.0416
X7.5409Y-3.2581
T7
X9.6309Y-5.0761
X4.7109Y-2.6561
X9.6309Y-2.6561
X4.7109Y-5.0761
T0
M30
