%TF.GenerationSoftware,KiCad,Pcbnew,(5.1.8-0-10_14)*%
%TF.CreationDate,2021-02-20T12:55:23+10:00*%
%TF.ProjectId,mfos_noise_toaster,6d666f73-5f6e-46f6-9973-655f746f6173,rev?*%
%TF.SameCoordinates,Original*%
%TF.FileFunction,Legend,Bot*%
%TF.FilePolarity,Positive*%
%FSLAX46Y46*%
G04 Gerber Fmt 4.6, Leading zero omitted, Abs format (unit mm)*
G04 Created by KiCad (PCBNEW (5.1.8-0-10_14)) date 2021-02-20 12:55:23*
%MOMM*%
%LPD*%
G01*
G04 APERTURE LIST*
%ADD10C,0.300000*%
G04 APERTURE END LIST*
D10*
X147231542Y-69587371D02*
X147231542Y-68087371D01*
X146374400Y-69587371D01*
X146374400Y-68087371D01*
X145445828Y-69587371D02*
X145588685Y-69515942D01*
X145660114Y-69444514D01*
X145731542Y-69301657D01*
X145731542Y-68873085D01*
X145660114Y-68730228D01*
X145588685Y-68658800D01*
X145445828Y-68587371D01*
X145231542Y-68587371D01*
X145088685Y-68658800D01*
X145017257Y-68730228D01*
X144945828Y-68873085D01*
X144945828Y-69301657D01*
X145017257Y-69444514D01*
X145088685Y-69515942D01*
X145231542Y-69587371D01*
X145445828Y-69587371D01*
X144302971Y-69587371D02*
X144302971Y-68587371D01*
X144302971Y-68087371D02*
X144374400Y-68158800D01*
X144302971Y-68230228D01*
X144231542Y-68158800D01*
X144302971Y-68087371D01*
X144302971Y-68230228D01*
X143660114Y-69515942D02*
X143517257Y-69587371D01*
X143231542Y-69587371D01*
X143088685Y-69515942D01*
X143017257Y-69373085D01*
X143017257Y-69301657D01*
X143088685Y-69158800D01*
X143231542Y-69087371D01*
X143445828Y-69087371D01*
X143588685Y-69015942D01*
X143660114Y-68873085D01*
X143660114Y-68801657D01*
X143588685Y-68658800D01*
X143445828Y-68587371D01*
X143231542Y-68587371D01*
X143088685Y-68658800D01*
X141802971Y-69515942D02*
X141945828Y-69587371D01*
X142231542Y-69587371D01*
X142374400Y-69515942D01*
X142445828Y-69373085D01*
X142445828Y-68801657D01*
X142374400Y-68658800D01*
X142231542Y-68587371D01*
X141945828Y-68587371D01*
X141802971Y-68658800D01*
X141731542Y-68801657D01*
X141731542Y-68944514D01*
X142445828Y-69087371D01*
X140160114Y-68087371D02*
X139302971Y-68087371D01*
X139731542Y-69587371D02*
X139731542Y-68087371D01*
X138588685Y-69587371D02*
X138731542Y-69515942D01*
X138802971Y-69444514D01*
X138874400Y-69301657D01*
X138874400Y-68873085D01*
X138802971Y-68730228D01*
X138731542Y-68658800D01*
X138588685Y-68587371D01*
X138374400Y-68587371D01*
X138231542Y-68658800D01*
X138160114Y-68730228D01*
X138088685Y-68873085D01*
X138088685Y-69301657D01*
X138160114Y-69444514D01*
X138231542Y-69515942D01*
X138374400Y-69587371D01*
X138588685Y-69587371D01*
X136802971Y-69587371D02*
X136802971Y-68801657D01*
X136874400Y-68658800D01*
X137017257Y-68587371D01*
X137302971Y-68587371D01*
X137445828Y-68658800D01*
X136802971Y-69515942D02*
X136945828Y-69587371D01*
X137302971Y-69587371D01*
X137445828Y-69515942D01*
X137517257Y-69373085D01*
X137517257Y-69230228D01*
X137445828Y-69087371D01*
X137302971Y-69015942D01*
X136945828Y-69015942D01*
X136802971Y-68944514D01*
X136160114Y-69515942D02*
X136017257Y-69587371D01*
X135731542Y-69587371D01*
X135588685Y-69515942D01*
X135517257Y-69373085D01*
X135517257Y-69301657D01*
X135588685Y-69158800D01*
X135731542Y-69087371D01*
X135945828Y-69087371D01*
X136088685Y-69015942D01*
X136160114Y-68873085D01*
X136160114Y-68801657D01*
X136088685Y-68658800D01*
X135945828Y-68587371D01*
X135731542Y-68587371D01*
X135588685Y-68658800D01*
X135088685Y-68587371D02*
X134517257Y-68587371D01*
X134874400Y-68087371D02*
X134874400Y-69373085D01*
X134802971Y-69515942D01*
X134660114Y-69587371D01*
X134517257Y-69587371D01*
X133445828Y-69515942D02*
X133588685Y-69587371D01*
X133874400Y-69587371D01*
X134017257Y-69515942D01*
X134088685Y-69373085D01*
X134088685Y-68801657D01*
X134017257Y-68658800D01*
X133874400Y-68587371D01*
X133588685Y-68587371D01*
X133445828Y-68658800D01*
X133374400Y-68801657D01*
X133374400Y-68944514D01*
X134088685Y-69087371D01*
X132731542Y-69587371D02*
X132731542Y-68587371D01*
X132731542Y-68873085D02*
X132660114Y-68730228D01*
X132588685Y-68658800D01*
X132445828Y-68587371D01*
X132302971Y-68587371D01*
X144981542Y-72137371D02*
X144981542Y-70637371D01*
X144624400Y-70637371D01*
X144410114Y-70708800D01*
X144267257Y-70851657D01*
X144195828Y-70994514D01*
X144124400Y-71280228D01*
X144124400Y-71494514D01*
X144195828Y-71780228D01*
X144267257Y-71923085D01*
X144410114Y-72065942D01*
X144624400Y-72137371D01*
X144981542Y-72137371D01*
X142910114Y-72065942D02*
X143052971Y-72137371D01*
X143338685Y-72137371D01*
X143481542Y-72065942D01*
X143552971Y-71923085D01*
X143552971Y-71351657D01*
X143481542Y-71208800D01*
X143338685Y-71137371D01*
X143052971Y-71137371D01*
X142910114Y-71208800D01*
X142838685Y-71351657D01*
X142838685Y-71494514D01*
X143552971Y-71637371D01*
X141552971Y-72065942D02*
X141695828Y-72137371D01*
X141981542Y-72137371D01*
X142124400Y-72065942D01*
X142195828Y-71994514D01*
X142267257Y-71851657D01*
X142267257Y-71423085D01*
X142195828Y-71280228D01*
X142124400Y-71208800D01*
X141981542Y-71137371D01*
X141695828Y-71137371D01*
X141552971Y-71208800D01*
X139838685Y-70780228D02*
X139767257Y-70708800D01*
X139624400Y-70637371D01*
X139267257Y-70637371D01*
X139124400Y-70708800D01*
X139052971Y-70780228D01*
X138981542Y-70923085D01*
X138981542Y-71065942D01*
X139052971Y-71280228D01*
X139910114Y-72137371D01*
X138981542Y-72137371D01*
X138052971Y-70637371D02*
X137910114Y-70637371D01*
X137767257Y-70708800D01*
X137695828Y-70780228D01*
X137624400Y-70923085D01*
X137552971Y-71208800D01*
X137552971Y-71565942D01*
X137624400Y-71851657D01*
X137695828Y-71994514D01*
X137767257Y-72065942D01*
X137910114Y-72137371D01*
X138052971Y-72137371D01*
X138195828Y-72065942D01*
X138267257Y-71994514D01*
X138338685Y-71851657D01*
X138410114Y-71565942D01*
X138410114Y-71208800D01*
X138338685Y-70923085D01*
X138267257Y-70780228D01*
X138195828Y-70708800D01*
X138052971Y-70637371D01*
X136981542Y-70780228D02*
X136910114Y-70708800D01*
X136767257Y-70637371D01*
X136410114Y-70637371D01*
X136267257Y-70708800D01*
X136195828Y-70780228D01*
X136124400Y-70923085D01*
X136124400Y-71065942D01*
X136195828Y-71280228D01*
X137052971Y-72137371D01*
X136124400Y-72137371D01*
X135195828Y-70637371D02*
X135052971Y-70637371D01*
X134910114Y-70708800D01*
X134838685Y-70780228D01*
X134767257Y-70923085D01*
X134695828Y-71208800D01*
X134695828Y-71565942D01*
X134767257Y-71851657D01*
X134838685Y-71994514D01*
X134910114Y-72065942D01*
X135052971Y-72137371D01*
X135195828Y-72137371D01*
X135338685Y-72065942D01*
X135410114Y-71994514D01*
X135481542Y-71851657D01*
X135552971Y-71565942D01*
X135552971Y-71208800D01*
X135481542Y-70923085D01*
X135410114Y-70780228D01*
X135338685Y-70708800D01*
X135195828Y-70637371D01*
M02*
