%TF.GenerationSoftware,KiCad,Pcbnew,(5.1.8-0-10_14)*%
%TF.CreationDate,2021-02-20T12:55:23+10:00*%
%TF.ProjectId,mfos_noise_toaster,6d666f73-5f6e-46f6-9973-655f746f6173,rev?*%
%TF.SameCoordinates,Original*%
%TF.FileFunction,Soldermask,Top*%
%TF.FilePolarity,Negative*%
%FSLAX46Y46*%
G04 Gerber Fmt 4.6, Leading zero omitted, Abs format (unit mm)*
G04 Created by KiCad (PCBNEW (5.1.8-0-10_14)) date 2021-02-20 12:55:23*
%MOMM*%
%LPD*%
G01*
G04 APERTURE LIST*
%ADD10R,1.500000X1.050000*%
%ADD11O,1.500000X1.050000*%
%ADD12C,1.524000*%
%ADD13O,1.600000X1.600000*%
%ADD14C,1.600000*%
%ADD15C,0.800000*%
%ADD16C,6.400000*%
%ADD17O,1.600000X2.400000*%
%ADD18R,1.600000X2.400000*%
%ADD19R,1.600000X1.600000*%
%ADD20R,1.000000X1.500000*%
%ADD21O,1.000000X1.500000*%
%ADD22C,2.000000*%
%ADD23R,2.000000X2.000000*%
G04 APERTURE END LIST*
D10*
%TO.C,Q6*%
X134520000Y-125390000D03*
D11*
X134520000Y-122850000D03*
X134520000Y-124120000D03*
%TD*%
D10*
%TO.C,Q4*%
X215940000Y-95450000D03*
D11*
X215940000Y-97990000D03*
X215940000Y-96720000D03*
%TD*%
D10*
%TO.C,Q3*%
X211250000Y-98020000D03*
D11*
X211250000Y-95480000D03*
X211250000Y-96750000D03*
%TD*%
D10*
%TO.C,Q5*%
X119080000Y-118410000D03*
D11*
X119080000Y-120950000D03*
X119080000Y-119680000D03*
%TD*%
D10*
%TO.C,Q2*%
X124950000Y-124420000D03*
D11*
X124950000Y-121880000D03*
X124950000Y-123150000D03*
%TD*%
D12*
%TO.C,X28*%
X174774000Y-127664000D03*
%TD*%
%TO.C,VCOIn1*%
X246910000Y-83214000D03*
%TD*%
D13*
%TO.C,R77*%
X167662000Y-120552000D03*
D14*
X167662000Y-130712000D03*
%TD*%
D13*
%TO.C,R1*%
X242592000Y-83214000D03*
D14*
X232432000Y-83214000D03*
%TD*%
%TO.C,C77*%
X171472000Y-124108000D03*
X171472000Y-127608000D03*
%TD*%
D15*
%TO.C,REF\u002A\u002A*%
X246321056Y-127236944D03*
X244624000Y-126534000D03*
X242926944Y-127236944D03*
X242224000Y-128934000D03*
X242926944Y-130631056D03*
X244624000Y-131334000D03*
X246321056Y-130631056D03*
X247024000Y-128934000D03*
D16*
X244624000Y-128934000D03*
%TD*%
D15*
%TO.C,REF\u002A\u002A*%
X246321056Y-65768944D03*
X244624000Y-65066000D03*
X242926944Y-65768944D03*
X242224000Y-67466000D03*
X242926944Y-69163056D03*
X244624000Y-69866000D03*
X246321056Y-69163056D03*
X247024000Y-67466000D03*
D16*
X244624000Y-67466000D03*
%TD*%
D15*
%TO.C,REF\u002A\u002A*%
X121353056Y-65768944D03*
X119656000Y-65066000D03*
X117958944Y-65768944D03*
X117256000Y-67466000D03*
X117958944Y-69163056D03*
X119656000Y-69866000D03*
X121353056Y-69163056D03*
X122056000Y-67466000D03*
D16*
X119656000Y-67466000D03*
%TD*%
D15*
%TO.C,REF\u002A\u002A*%
X121353056Y-127236944D03*
X119656000Y-126534000D03*
X117958944Y-127236944D03*
X117256000Y-128934000D03*
X117958944Y-130631056D03*
X119656000Y-131334000D03*
X121353056Y-130631056D03*
X122056000Y-128934000D03*
D16*
X119656000Y-128934000D03*
%TD*%
D17*
%TO.C,U1*%
X213001000Y-105439000D03*
X228241000Y-113059000D03*
X215541000Y-105439000D03*
X225701000Y-113059000D03*
X218081000Y-105439000D03*
X223161000Y-113059000D03*
X220621000Y-105439000D03*
X220621000Y-113059000D03*
X223161000Y-105439000D03*
X218081000Y-113059000D03*
X225701000Y-105439000D03*
X215541000Y-113059000D03*
X228241000Y-105439000D03*
D18*
X213001000Y-113059000D03*
%TD*%
D12*
%TO.C,GND1*%
X186712000Y-68736000D03*
%TD*%
%TO.C,X15*%
X183816400Y-68482000D03*
%TD*%
%TO.C,X27*%
X209064000Y-68990000D03*
%TD*%
%TO.C,X26*%
X230781000Y-67466000D03*
%TD*%
%TO.C,X25*%
X202714000Y-68736000D03*
%TD*%
%TO.C,X24*%
X205508000Y-68736000D03*
%TD*%
%TO.C,X23*%
X180616000Y-68685200D03*
%TD*%
%TO.C,X22*%
X120354500Y-77689500D03*
%TD*%
%TO.C,X21*%
X120227500Y-80229500D03*
%TD*%
%TO.C,X20*%
X149069200Y-68482000D03*
%TD*%
%TO.C,X19*%
X120291000Y-83023500D03*
%TD*%
%TO.C,X18*%
X120164000Y-95406000D03*
%TD*%
%TO.C,X17*%
X120291000Y-85373000D03*
%TD*%
%TO.C,X16*%
X151355200Y-68532800D03*
%TD*%
%TO.C,X14*%
X183918000Y-127740200D03*
%TD*%
%TO.C,X13*%
X120608500Y-99216000D03*
%TD*%
%TO.C,X12*%
X120608500Y-101438500D03*
%TD*%
%TO.C,X11*%
X144040000Y-127029000D03*
%TD*%
%TO.C,X10*%
X177314000Y-127664000D03*
%TD*%
%TO.C,X9*%
X179917500Y-127664000D03*
%TD*%
%TO.C,X8*%
X164868000Y-127092500D03*
%TD*%
%TO.C,X7*%
X202409200Y-127765600D03*
%TD*%
%TO.C,X6*%
X244370000Y-104550000D03*
%TD*%
%TO.C,X5*%
X246910000Y-92866000D03*
%TD*%
%TO.C,X4*%
X141500000Y-127029000D03*
%TD*%
%TO.C,X3*%
X205304800Y-127562400D03*
%TD*%
%TO.C,X2*%
X246910000Y-89564000D03*
%TD*%
%TO.C,X1*%
X246910000Y-86262000D03*
%TD*%
D14*
%TO.C,U3*%
X215414000Y-74324000D03*
X217954000Y-74324000D03*
X220494000Y-74324000D03*
X223034000Y-74324000D03*
X223034000Y-81944000D03*
X220494000Y-81944000D03*
X217954000Y-81944000D03*
D19*
X215414000Y-81944000D03*
%TD*%
D17*
%TO.C,U2*%
X159470500Y-101311500D03*
X174710500Y-108931500D03*
X162010500Y-101311500D03*
X172170500Y-108931500D03*
X164550500Y-101311500D03*
X169630500Y-108931500D03*
X167090500Y-101311500D03*
X167090500Y-108931500D03*
X169630500Y-101311500D03*
X164550500Y-108931500D03*
X172170500Y-101311500D03*
X162010500Y-108931500D03*
X174710500Y-101311500D03*
D18*
X159470500Y-108931500D03*
%TD*%
D13*
%TO.C,R70*%
X175993200Y-71428400D03*
D14*
X165833200Y-71428400D03*
%TD*%
D13*
%TO.C,R69*%
X229384000Y-81944000D03*
D14*
X229384000Y-92104000D03*
%TD*%
D13*
%TO.C,R68*%
X212112000Y-87024000D03*
D14*
X222272000Y-87024000D03*
%TD*%
D13*
%TO.C,R67*%
X212112000Y-90834000D03*
D14*
X222272000Y-90834000D03*
%TD*%
D13*
%TO.C,R65*%
X165985600Y-67262800D03*
D14*
X176145600Y-67262800D03*
%TD*%
D13*
%TO.C,R64*%
X165630000Y-93374000D03*
D14*
X165630000Y-83214000D03*
%TD*%
D13*
%TO.C,R63*%
X162328000Y-93374000D03*
D14*
X162328000Y-83214000D03*
%TD*%
D13*
%TO.C,R62*%
X123783500Y-74324000D03*
D14*
X133943500Y-74324000D03*
%TD*%
D13*
%TO.C,R61*%
X133880000Y-81309000D03*
D14*
X123720000Y-81309000D03*
%TD*%
D13*
%TO.C,R60*%
X177674680Y-83241940D03*
D14*
X177674680Y-93401940D03*
%TD*%
D13*
%TO.C,R59*%
X180946200Y-83214000D03*
D14*
X180946200Y-93374000D03*
%TD*%
D13*
%TO.C,R58*%
X158721200Y-83214000D03*
D14*
X158721200Y-93374000D03*
%TD*%
D13*
%TO.C,R57*%
X123720000Y-77816500D03*
D14*
X133880000Y-77816500D03*
%TD*%
D13*
%TO.C,R56*%
X157502000Y-77575200D03*
D14*
X147342000Y-77575200D03*
%TD*%
D13*
%TO.C,R55*%
X174469200Y-83214000D03*
D14*
X174469200Y-93374000D03*
%TD*%
D13*
%TO.C,R54*%
X154758800Y-90376800D03*
D14*
X154758800Y-100536800D03*
%TD*%
D13*
%TO.C,R52*%
X130933600Y-87989200D03*
D14*
X141093600Y-87989200D03*
%TD*%
D13*
%TO.C,R50*%
X130832000Y-91532500D03*
D14*
X140992000Y-91532500D03*
%TD*%
D13*
%TO.C,R48*%
X184680000Y-93374000D03*
D14*
X184680000Y-83214000D03*
%TD*%
D13*
%TO.C,R47*%
X123529500Y-100359000D03*
D14*
X133689500Y-100359000D03*
%TD*%
D13*
%TO.C,R46*%
X134388000Y-96549000D03*
D14*
X124228000Y-96549000D03*
%TD*%
D13*
%TO.C,R45*%
X197634000Y-123219000D03*
D14*
X187474000Y-123219000D03*
%TD*%
D13*
%TO.C,R44*%
X197634000Y-119409000D03*
D14*
X187474000Y-119409000D03*
%TD*%
D13*
%TO.C,R42*%
X188998000Y-93120000D03*
D14*
X199158000Y-93120000D03*
%TD*%
D13*
%TO.C,R41*%
X139595000Y-96549000D03*
D14*
X149755000Y-96549000D03*
%TD*%
D13*
%TO.C,R40*%
X197634000Y-127029000D03*
D14*
X187474000Y-127029000D03*
%TD*%
D13*
%TO.C,R39*%
X187474000Y-130712000D03*
D14*
X197634000Y-130712000D03*
%TD*%
D13*
%TO.C,R37*%
X188998000Y-96422000D03*
D14*
X199158000Y-96422000D03*
%TD*%
D13*
%TO.C,R36*%
X145564000Y-123854000D03*
D14*
X145564000Y-113694000D03*
%TD*%
D13*
%TO.C,R35*%
X161947000Y-112741500D03*
D14*
X151787000Y-112741500D03*
%TD*%
D13*
%TO.C,R34*%
X154835000Y-130585000D03*
D14*
X154835000Y-120425000D03*
%TD*%
D13*
%TO.C,R33*%
X158200500Y-130585000D03*
D14*
X158200500Y-120425000D03*
%TD*%
D13*
%TO.C,R32*%
X199158000Y-99724000D03*
D14*
X188998000Y-99724000D03*
%TD*%
D13*
%TO.C,R31*%
X188947200Y-106734400D03*
D14*
X199107200Y-106734400D03*
%TD*%
D13*
%TO.C,R30*%
X188540800Y-111560400D03*
D14*
X178380800Y-111560400D03*
%TD*%
D13*
%TO.C,R27*%
X148739000Y-123854000D03*
D14*
X148739000Y-113694000D03*
%TD*%
D13*
%TO.C,R26*%
X188591600Y-114964000D03*
D14*
X178431600Y-114964000D03*
%TD*%
D13*
%TO.C,R25*%
X134134000Y-117758000D03*
D14*
X134134000Y-107598000D03*
%TD*%
D13*
%TO.C,R24*%
X245132000Y-108360000D03*
D14*
X245132000Y-118520000D03*
%TD*%
D13*
%TO.C,R23*%
X235226000Y-104296000D03*
D14*
X235226000Y-114456000D03*
%TD*%
D13*
%TO.C,R22*%
X238528000Y-104296000D03*
D14*
X238528000Y-114456000D03*
%TD*%
D13*
%TO.C,R21*%
X242592000Y-92866000D03*
D14*
X232432000Y-92866000D03*
%TD*%
D13*
%TO.C,R19*%
X138388500Y-130585000D03*
D14*
X138388500Y-120425000D03*
%TD*%
D13*
%TO.C,R18*%
X239036000Y-129950000D03*
D14*
X239036000Y-119790000D03*
%TD*%
D13*
%TO.C,R17*%
X236115000Y-121695000D03*
D14*
X225955000Y-121695000D03*
%TD*%
D13*
%TO.C,R16*%
X202460000Y-109376000D03*
D14*
X202460000Y-99216000D03*
%TD*%
D13*
%TO.C,R15*%
X138452000Y-117885000D03*
D14*
X138452000Y-107725000D03*
%TD*%
D13*
%TO.C,R14*%
X242592000Y-89564000D03*
D14*
X232432000Y-89564000D03*
%TD*%
D13*
%TO.C,R12*%
X221637000Y-126521000D03*
D14*
X231797000Y-126521000D03*
%TD*%
D13*
%TO.C,R11*%
X225828000Y-101502000D03*
D14*
X225828000Y-91342000D03*
%TD*%
D13*
%TO.C,R10*%
X129435000Y-129188000D03*
D14*
X129435000Y-119028000D03*
%TD*%
D13*
%TO.C,R9*%
X124736000Y-106328000D03*
D14*
X124736000Y-116488000D03*
%TD*%
D13*
%TO.C,R8*%
X118132000Y-113948000D03*
D14*
X118132000Y-103788000D03*
%TD*%
D13*
%TO.C,R7*%
X223542000Y-118012000D03*
D14*
X233702000Y-118012000D03*
%TD*%
D13*
%TO.C,R6*%
X208606800Y-130153200D03*
D14*
X218766800Y-130153200D03*
%TD*%
D13*
%TO.C,R5*%
X209318000Y-108995000D03*
D14*
X209318000Y-119155000D03*
%TD*%
D13*
%TO.C,R4*%
X206016000Y-109376000D03*
D14*
X206016000Y-99216000D03*
%TD*%
D13*
%TO.C,R3*%
X231924000Y-104296000D03*
D14*
X231924000Y-114456000D03*
%TD*%
D13*
%TO.C,R2*%
X242592000Y-86262000D03*
D14*
X232432000Y-86262000D03*
%TD*%
D20*
%TO.C,Q10*%
X126895000Y-70260000D03*
D21*
X129435000Y-70260000D03*
X128165000Y-70260000D03*
%TD*%
D20*
%TO.C,Q9*%
X153844400Y-84026800D03*
D21*
X151304400Y-84026800D03*
X152574400Y-84026800D03*
%TD*%
D20*
%TO.C,Q8*%
X181124000Y-121822000D03*
D21*
X183664000Y-121822000D03*
X182394000Y-121822000D03*
%TD*%
D20*
%TO.C,Q7*%
X147088000Y-105629500D03*
D21*
X149628000Y-105629500D03*
X148358000Y-105629500D03*
%TD*%
D20*
%TO.C,Q1*%
X214652000Y-123981000D03*
D21*
X212112000Y-123981000D03*
X213382000Y-123981000D03*
%TD*%
D13*
%TO.C,D1*%
X234845000Y-129696000D03*
D19*
X227225000Y-129696000D03*
%TD*%
D14*
%TO.C,COPTIONAL1*%
X210334000Y-75634000D03*
D19*
X210334000Y-78134000D03*
%TD*%
D22*
%TO.C,C26*%
X158162400Y-72212000D03*
D23*
X158162400Y-67212000D03*
%TD*%
D14*
%TO.C,C25*%
X215160000Y-66744000D03*
D19*
X215160000Y-69244000D03*
%TD*%
D14*
%TO.C,C24*%
X229384000Y-97906000D03*
X229384000Y-95406000D03*
%TD*%
D23*
%TO.C,C23*%
X201836000Y-87786000D03*
D22*
X207336000Y-87786000D03*
%TD*%
%TO.C,C22*%
X233622000Y-75086000D03*
D23*
X228622000Y-75086000D03*
%TD*%
D14*
%TO.C,C21*%
X202714000Y-78094000D03*
D19*
X202714000Y-75594000D03*
%TD*%
D14*
%TO.C,C20*%
X220748000Y-70006000D03*
X220748000Y-66506000D03*
%TD*%
%TO.C,C19*%
X140230000Y-81523000D03*
D19*
X140230000Y-79023000D03*
%TD*%
D14*
%TO.C,C18*%
X124585500Y-88040000D03*
D19*
X127085500Y-88040000D03*
%TD*%
D14*
%TO.C,C16*%
X180463600Y-98871200D03*
D19*
X180463600Y-96371200D03*
%TD*%
D23*
%TO.C,C15*%
X191538000Y-77256000D03*
D22*
X191538000Y-82756000D03*
%TD*%
D14*
%TO.C,C14*%
X170049600Y-97499600D03*
D19*
X170049600Y-94999600D03*
%TD*%
D14*
%TO.C,C13*%
X168106500Y-116067000D03*
D19*
X168106500Y-113567000D03*
%TD*%
D14*
%TO.C,C12*%
X148231000Y-130585000D03*
X148231000Y-127085000D03*
%TD*%
%TO.C,C11*%
X179600000Y-106328000D03*
X179600000Y-102828000D03*
%TD*%
%TO.C,C10*%
X154787000Y-116361000D03*
X151787000Y-116361000D03*
%TD*%
%TO.C,C9*%
X157550000Y-116297500D03*
X160550000Y-116297500D03*
%TD*%
%TO.C,C8*%
X161566000Y-130712000D03*
X161566000Y-127212000D03*
%TD*%
%TO.C,C7*%
X129435000Y-112424000D03*
X129435000Y-115924000D03*
%TD*%
%TO.C,C6*%
X241830000Y-112718000D03*
X241830000Y-115218000D03*
%TD*%
%TO.C,C5*%
X221764000Y-97184000D03*
X221764000Y-100684000D03*
%TD*%
%TO.C,C4*%
X220494000Y-121314000D03*
X220494000Y-117814000D03*
%TD*%
%TO.C,C3*%
X121561000Y-110646000D03*
X121561000Y-107146000D03*
%TD*%
%TO.C,C2*%
X212922000Y-119282000D03*
X215922000Y-119282000D03*
%TD*%
%TO.C,C1*%
X213676000Y-101502000D03*
X216176000Y-101502000D03*
%TD*%
D12*
%TO.C,BP1*%
X195602000Y-68228000D03*
%TD*%
%TO.C,BN1*%
X198396000Y-68228000D03*
%TD*%
M02*
