M48
; DRILL file {KiCad (5.1.8-0-10_14)} date Tuesday, December 29, 2020 at 12:31:59 PM
; FORMAT={-:-/ absolute / inch / decimal}
; #@! TF.CreationDate,2020-12-29T12:31:59+10:00
; #@! TF.GenerationSoftware,Kicad,Pcbnew,(5.1.8-0-10_14)
; #@! TF.FileFunction,Plated,1,2,PTH
FMAT,2
INCH
T1C0.0130
T2C0.0197
T3C0.0217
T4C0.0295
T5C0.0315
T6C0.0394
T7C0.1260
%
G90
G05
T1
X2.47Y-1.6
T2
X0.0455Y-0.14
X0.0732Y-0.0732
X0.0732Y-0.2068
X0.14Y-0.0455
X0.14Y-0.2345
X0.2068Y-0.0732
X0.2068Y-0.2068
X0.2345Y-0.14
X4.9655Y-2.56
X4.9932Y-2.4932
X4.9932Y-2.6268
X5.06Y-2.4655
X5.06Y-2.6545
X5.1268Y-2.4932
X5.1268Y-2.6268
X5.1545Y-2.56
X0.0455Y-2.56
X0.0732Y-2.4932
X0.0732Y-2.6268
X0.14Y-2.4655
X0.14Y-2.6545
X0.2068Y-2.4932
X0.2068Y-2.6268
X0.2345Y-2.56
X4.9655Y-0.14
X4.9932Y-0.0732
X4.9932Y-0.2068
X5.06Y-0.0455
X5.06Y-0.2345
X5.1268Y-0.0732
X5.1268Y-0.2068
X5.1545Y-0.14
T3
X3.78Y-2.365
X3.83Y-2.365
X3.88Y-2.365
X3.77Y-1.24
X3.77Y-1.29
X3.77Y-1.34
X0.425Y-0.25
X0.475Y-0.25
X0.525Y-0.25
X1.386Y-0.792
X1.436Y-0.792
X1.486Y-0.792
X2.56Y-2.28
X2.61Y-2.28
X2.66Y-2.28
X1.22Y-1.6425
X1.27Y-1.6425
X1.32Y-1.6425
X3.95Y-1.24
X3.95Y-1.29
X3.95Y-1.34
T4
X0.67Y-2.39
X0.72Y-2.34
X0.72Y-2.44
X0.325Y-2.35
X0.375Y-2.3
X0.375Y-2.4
X0.13Y-2.09
X0.13Y-2.19
X0.18Y-2.14
T5
X1.6319Y-2.0625
X1.75Y-2.0625
X4.375Y-2.59
X4.675Y-2.59
X2.81Y-2.63
X3.21Y-2.63
X3.78Y-0.91
X4.18Y-0.91
X1.6575Y-2.225
X1.6575Y-2.625
X4.58Y-0.88
X4.98Y-0.88
X0.3025Y-0.41
X0.7025Y-0.41
X4.32Y-1.08
X4.32Y-1.48
X2.54Y-0.188
X0.16Y-1.24
X0.2925Y-1.435
X0.6925Y-1.435
X1.16Y-1.96
X1.16Y-2.36
X0.71Y-1.72
X0.71Y-2.12
X1.958Y-0.296
X2.358Y-0.296
X1.92Y-2.4875
X3.512Y-2.506
X2.78Y-0.19
X2.124Y-1.224
X2.124Y-1.3224
X2.81Y-2.485
X3.21Y-2.485
X3.9Y-0.1116
X3.9Y-0.21
X4.46Y-0.71
X4.46Y-1.11
X1.525Y-2.225
X1.525Y-2.625
X4.84Y-2.2
X4.84Y-2.6
X4.56Y-1.59
X4.56Y-1.99
X2.5Y-1.5322
X2.5Y-1.67
X4.155Y-2.465
X4.555Y-2.465
X1.82Y-0.76
X1.82Y-1.16
X0.95Y-0.595
X0.95Y-0.6934
X2.7Y-0.76
X2.7Y-1.16
X1.23Y-0.538
X1.63Y-0.538
X2.454Y-2.01
X2.854Y-2.01
X0.525Y-1.91
X0.525Y-2.0478
X2.553Y-0.76
X2.553Y-1.16
X0.58Y-1.0875
X0.98Y-1.0875
X3.41Y-0.19
X1.298Y-0.18
X2.67Y-2.513
X2.0475Y-1.955
X2.0475Y-2.0534
X0.925Y-1.285
X1.325Y-1.285
X2.41Y-2.51
X5.15Y-1.14
X1.405Y-1.9225
X1.805Y-1.9225
X0.8775Y-2.225
X0.8775Y-2.625
X3.54Y-1.39
X3.54Y-1.79
X4.58Y-1.01
X4.98Y-1.01
X1.95Y-0.76
X1.95Y-1.16
X3.71Y-0.4616
X3.71Y-0.56
X0.3Y-0.5475
X0.7Y-0.5475
X1.285Y-1.96
X1.285Y-2.36
X0.584Y-0.948
X0.984Y-0.948
X4.23Y-2.13
X4.63Y-2.13
X1.79Y-2.4922
X1.79Y-2.63
X2.87Y-1.15
X3.27Y-1.15
X0.1675Y-0.5425
X0.165Y-0.845
X2.18Y-2.37
X2.18Y-2.5078
X4.58Y-1.14
X4.98Y-1.14
X1.405Y-2.065
X1.5231Y-2.065
X0.3341Y-0.95
X0.4325Y-0.95
X3.67Y-1.775
X3.67Y-2.175
X0.1775Y-1.4775
X3.398Y-2.514
X5.15Y-1.01
X0.88Y-1.725
X0.88Y-2.125
X4.515Y-0.14
X4.46Y-1.24
X4.46Y-1.3384
X2.31Y-2.51
X1.964Y-0.132
X2.364Y-0.132
X2.666Y-0.18
X4.95Y-1.9216
X4.95Y-2.02
X1.678Y-0.76
X1.678Y-1.16
X2.452Y-1.876
X2.852Y-1.876
X0.08Y-1.57
X0.08Y-1.97
X3.66Y-0.2
X1.7075Y-1.4725
X1.7075Y-1.7725
X1.8075Y-1.4725
X1.8075Y-1.7725
X1.9075Y-1.4725
X1.9075Y-1.7725
X2.0075Y-1.4725
X2.0075Y-1.7725
X2.1075Y-1.4725
X2.1075Y-1.7725
X2.2075Y-1.4725
X2.2075Y-1.7725
X2.3075Y-1.4725
X2.3075Y-1.7725
X1.265Y-2.4872
X1.265Y-2.625
X2.81Y-2.185
X3.21Y-2.185
X4.82Y-1.59
X4.82Y-1.99
X4.11Y-2.1222
X4.11Y-2.26
X3.642Y-2.608
X4.042Y-2.608
X2.534Y-1.278
X2.534Y-1.3764
X3.52Y-0.19
X0.165Y-0.7525
X0.1775Y-1.39
X3.4Y-1.39
X3.4Y-1.79
X2.03Y-2.23
X2.03Y-2.63
X2.5125Y-2.51
X1.0Y-2.485
X2.868Y-1.686
X3.268Y-1.686
X3.8119Y-2.18
X3.93Y-2.18
X3.8416Y-1.48
X3.94Y-1.48
X3.13Y-0.17
X0.34Y-1.67
X0.34Y-2.07
X2.4242Y-0.7611
X2.4242Y-1.1611
X3.815Y-1.635
X3.815Y-1.935
X3.915Y-1.635
X3.915Y-1.935
X4.015Y-1.635
X4.015Y-1.935
X4.115Y-1.635
X4.115Y-1.935
X4.215Y-1.635
X4.215Y-1.935
X4.315Y-1.635
X4.315Y-1.935
X4.415Y-1.635
X4.415Y-1.935
X5.15Y-0.76
X2.81Y-2.335
X3.21Y-2.335
X4.69Y-1.59
X4.69Y-1.99
X4.58Y-0.76
X4.98Y-0.76
X4.325Y-2.275
X4.725Y-2.275
X1.522Y-1.042
X1.522Y-1.442
X2.87Y-1.28
X3.27Y-1.28
X4.16Y-1.31
X4.16Y-1.4478
X0.1625Y-0.6425
X1.388Y-0.182
X3.78Y-1.06
X4.18Y-1.06
X2.87Y-1.41
X3.27Y-1.41
X3.41Y-0.46
X3.41Y-0.5584
X0.3Y-0.685
X0.7Y-0.685
X0.525Y-2.17
X0.525Y-2.57
X1.1Y-2.485
X5.05Y-1.6
X5.15Y-0.88
X2.298Y-0.76
X2.298Y-1.16
X0.32Y-1.285
X0.72Y-1.285
X4.12Y-0.1022
X4.12Y-0.24
X0.215Y-1.7022
X0.215Y-1.84
X5.08Y-1.75
X5.08Y-2.15
X3.24Y-0.17
T6
X3.3754Y-0.94
X3.592Y-0.94
X4.43Y-0.44
X4.6269Y-0.44
X3.91Y-0.41
X3.91Y-0.71
X4.01Y-0.41
X4.01Y-0.71
X4.11Y-0.41
X4.11Y-0.71
X4.21Y-0.41
X4.21Y-0.71
X1.656Y-0.13
X1.656Y-0.3269
X2.97Y-0.5254
X2.97Y-0.742
T7
X5.06Y-2.56
X5.06Y-0.14
X0.14Y-0.14
X0.14Y-2.56
T0
M30
